<mxfile host="app.diagrams.net" modified="2023-05-09T15:25:21.354Z" agent="Mozilla/5.0 (Windows NT 10.0; Win64; x64) AppleWebKit/537.36 (KHTML, like Gecko) Chrome/112.0.0.0 Safari/537.36" etag="N64nEoxo1t3VK8F7xMqR" version="21.2.9" type="device">
  <diagram name="Σελίδα-1" id="FGW1QGgAFWrMdD9JjJ1D">
    <mxGraphModel dx="704" dy="753" grid="1" gridSize="10" guides="1" tooltips="1" connect="1" arrows="1" fold="1" page="1" pageScale="1" pageWidth="1169" pageHeight="1654" math="0" shadow="0">
      <root>
        <mxCell id="0" />
        <mxCell id="1" parent="0" />
        <mxCell id="D7mrrMedz6HR9OCFB-Vp-4" value="" style="rounded=0;orthogonalLoop=1;jettySize=auto;html=1;fillColor=#FF0000;strokeColor=#000000;fontColor=#000000;" parent="1" source="D7mrrMedz6HR9OCFB-Vp-1" target="D7mrrMedz6HR9OCFB-Vp-3" edge="1">
          <mxGeometry relative="1" as="geometry" />
        </mxCell>
        <mxCell id="D7mrrMedz6HR9OCFB-Vp-5" value="&lt;font&gt;Αγορά εξοπλισμού&lt;/font&gt;" style="edgeLabel;html=1;align=center;verticalAlign=middle;resizable=0;points=[];fontColor=#000000;" parent="D7mrrMedz6HR9OCFB-Vp-4" vertex="1" connectable="0">
          <mxGeometry x="0.172" y="-4" relative="1" as="geometry">
            <mxPoint x="6" y="9" as="offset" />
          </mxGeometry>
        </mxCell>
        <mxCell id="D7mrrMedz6HR9OCFB-Vp-19" value="" style="edgeStyle=none;rounded=0;orthogonalLoop=1;jettySize=auto;html=1;fontColor=#000000;strokeColor=#000000;" parent="1" source="D7mrrMedz6HR9OCFB-Vp-1" target="D7mrrMedz6HR9OCFB-Vp-17" edge="1">
          <mxGeometry relative="1" as="geometry" />
        </mxCell>
        <mxCell id="D7mrrMedz6HR9OCFB-Vp-20" value="Επιλογή καταστήματος" style="edgeLabel;html=1;align=center;verticalAlign=middle;resizable=0;points=[];fontColor=#000000;" parent="D7mrrMedz6HR9OCFB-Vp-19" vertex="1" connectable="0">
          <mxGeometry x="-0.2754" y="-2" relative="1" as="geometry">
            <mxPoint y="10" as="offset" />
          </mxGeometry>
        </mxCell>
        <mxCell id="D7mrrMedz6HR9OCFB-Vp-25" value="" style="edgeStyle=none;rounded=0;orthogonalLoop=1;jettySize=auto;html=1;fontColor=#000000;strokeColor=#000000;" parent="1" source="D7mrrMedz6HR9OCFB-Vp-1" target="D7mrrMedz6HR9OCFB-Vp-23" edge="1">
          <mxGeometry relative="1" as="geometry" />
        </mxCell>
        <mxCell id="D7mrrMedz6HR9OCFB-Vp-26" value="Επιλογή προϊόντων και ποσότητας" style="edgeLabel;html=1;align=center;verticalAlign=middle;resizable=0;points=[];fontColor=#000000;" parent="D7mrrMedz6HR9OCFB-Vp-25" vertex="1" connectable="0">
          <mxGeometry x="-0.1014" y="-3" relative="1" as="geometry">
            <mxPoint as="offset" />
          </mxGeometry>
        </mxCell>
        <mxCell id="D7mrrMedz6HR9OCFB-Vp-30" value="" style="edgeStyle=none;rounded=0;orthogonalLoop=1;jettySize=auto;html=1;fontColor=#000000;strokeColor=#000000;" parent="1" source="D7mrrMedz6HR9OCFB-Vp-1" target="D7mrrMedz6HR9OCFB-Vp-29" edge="1">
          <mxGeometry relative="1" as="geometry" />
        </mxCell>
        <mxCell id="D7mrrMedz6HR9OCFB-Vp-32" value="Εισαγωγή στοιχείων" style="edgeLabel;html=1;align=center;verticalAlign=middle;resizable=0;points=[];fontColor=#000000;" parent="D7mrrMedz6HR9OCFB-Vp-30" vertex="1" connectable="0">
          <mxGeometry x="-0.1243" y="-2" relative="1" as="geometry">
            <mxPoint x="2" y="37" as="offset" />
          </mxGeometry>
        </mxCell>
        <mxCell id="D7mrrMedz6HR9OCFB-Vp-45" value="" style="edgeStyle=none;rounded=0;orthogonalLoop=1;jettySize=auto;html=1;fontColor=#000000;strokeColor=#000000;" parent="1" source="D7mrrMedz6HR9OCFB-Vp-1" target="D7mrrMedz6HR9OCFB-Vp-39" edge="1">
          <mxGeometry relative="1" as="geometry" />
        </mxCell>
        <mxCell id="D7mrrMedz6HR9OCFB-Vp-46" value="Επιβεβαιώνει" style="edgeLabel;html=1;align=center;verticalAlign=middle;resizable=0;points=[];fontColor=#000000;" parent="D7mrrMedz6HR9OCFB-Vp-45" vertex="1" connectable="0">
          <mxGeometry x="0.3966" y="-3" relative="1" as="geometry">
            <mxPoint x="29" y="8" as="offset" />
          </mxGeometry>
        </mxCell>
        <mxCell id="D7mrrMedz6HR9OCFB-Vp-1" value="Χρήστης" style="shape=umlActor;verticalLabelPosition=bottom;verticalAlign=top;html=1;outlineConnect=0;fontColor=#000000;" parent="1" vertex="1">
          <mxGeometry x="395" y="500" width="30" height="60" as="geometry" />
        </mxCell>
        <mxCell id="D7mrrMedz6HR9OCFB-Vp-7" value="" style="rounded=0;orthogonalLoop=1;jettySize=auto;html=1;strokeColor=#000000;fontColor=#000000;" parent="1" source="D7mrrMedz6HR9OCFB-Vp-3" target="D7mrrMedz6HR9OCFB-Vp-6" edge="1">
          <mxGeometry relative="1" as="geometry" />
        </mxCell>
        <mxCell id="D7mrrMedz6HR9OCFB-Vp-3" value="&lt;font&gt;Σελίδα αγορά εξοπλισμού&lt;/font&gt;" style="shape=umlBoundary;whiteSpace=wrap;html=1;strokeColor=#000000;fontColor=#000000;" parent="1" vertex="1">
          <mxGeometry x="360" y="250" width="100" height="80" as="geometry" />
        </mxCell>
        <mxCell id="D7mrrMedz6HR9OCFB-Vp-14" value="" style="edgeStyle=none;rounded=0;orthogonalLoop=1;jettySize=auto;html=1;strokeColor=#000000;fontColor=#000000;" parent="1" source="D7mrrMedz6HR9OCFB-Vp-6" target="D7mrrMedz6HR9OCFB-Vp-10" edge="1">
          <mxGeometry relative="1" as="geometry" />
        </mxCell>
        <mxCell id="D7mrrMedz6HR9OCFB-Vp-6" value="&lt;font&gt;Εμφάνισε&lt;/font&gt;" style="ellipse;shape=umlControl;whiteSpace=wrap;html=1;strokeColor=#000000;fontColor=#000000;" parent="1" vertex="1">
          <mxGeometry x="530" y="250" width="70" height="80" as="geometry" />
        </mxCell>
        <mxCell id="D7mrrMedz6HR9OCFB-Vp-16" value="" style="edgeStyle=none;rounded=0;orthogonalLoop=1;jettySize=auto;html=1;strokeColor=#000000;fontColor=#000000;" parent="1" source="D7mrrMedz6HR9OCFB-Vp-10" target="D7mrrMedz6HR9OCFB-Vp-15" edge="1">
          <mxGeometry relative="1" as="geometry" />
        </mxCell>
        <mxCell id="D7mrrMedz6HR9OCFB-Vp-10" value="&lt;font&gt;Σελίδα υπόλοιπο χρήστη&lt;/font&gt;" style="shape=umlBoundary;whiteSpace=wrap;html=1;strokeColor=#000000;fontColor=#000000;" parent="1" vertex="1">
          <mxGeometry x="640.05" y="250" width="100" height="80" as="geometry" />
        </mxCell>
        <mxCell id="D7mrrMedz6HR9OCFB-Vp-18" value="" style="edgeStyle=none;rounded=0;orthogonalLoop=1;jettySize=auto;html=1;strokeColor=#000000;fontColor=#000000;" parent="1" source="D7mrrMedz6HR9OCFB-Vp-15" target="D7mrrMedz6HR9OCFB-Vp-17" edge="1">
          <mxGeometry relative="1" as="geometry" />
        </mxCell>
        <mxCell id="D7mrrMedz6HR9OCFB-Vp-15" value="&lt;font&gt;Εμφάνισε&amp;nbsp;&lt;/font&gt;" style="ellipse;shape=umlControl;whiteSpace=wrap;html=1;strokeColor=#000000;fontColor=#000000;" parent="1" vertex="1">
          <mxGeometry x="655.05" y="360" width="70" height="80" as="geometry" />
        </mxCell>
        <mxCell id="D7mrrMedz6HR9OCFB-Vp-22" value="" style="edgeStyle=none;rounded=0;orthogonalLoop=1;jettySize=auto;html=1;exitX=0.5;exitY=1;exitDx=0;exitDy=0;exitPerimeter=0;strokeColor=#000000;fontColor=#000000;" parent="1" source="D7mrrMedz6HR9OCFB-Vp-17" target="D7mrrMedz6HR9OCFB-Vp-21" edge="1">
          <mxGeometry relative="1" as="geometry" />
        </mxCell>
        <mxCell id="D7mrrMedz6HR9OCFB-Vp-17" value="&lt;font&gt;Σελίδα λίστα καταστημάτων&lt;/font&gt;" style="shape=umlBoundary;whiteSpace=wrap;html=1;strokeColor=#000000;fontColor=#000000;" parent="1" vertex="1">
          <mxGeometry x="640.05" y="490" width="100" height="80" as="geometry" />
        </mxCell>
        <mxCell id="D7mrrMedz6HR9OCFB-Vp-24" value="" style="edgeStyle=none;rounded=0;orthogonalLoop=1;jettySize=auto;html=1;strokeColor=#000000;fontColor=#000000;" parent="1" source="D7mrrMedz6HR9OCFB-Vp-21" target="D7mrrMedz6HR9OCFB-Vp-23" edge="1">
          <mxGeometry relative="1" as="geometry" />
        </mxCell>
        <mxCell id="D7mrrMedz6HR9OCFB-Vp-21" value="Εμφάνισε" style="ellipse;shape=umlControl;whiteSpace=wrap;html=1;strokeColor=#000000;fontColor=#000000;" parent="1" vertex="1">
          <mxGeometry x="655.05" y="600" width="70" height="80" as="geometry" />
        </mxCell>
        <mxCell id="D7mrrMedz6HR9OCFB-Vp-28" value="" style="edgeStyle=none;rounded=0;orthogonalLoop=1;jettySize=auto;html=1;strokeColor=#000000;entryX=1.005;entryY=0.535;entryDx=0;entryDy=0;entryPerimeter=0;fontColor=#000000;" parent="1" source="D7mrrMedz6HR9OCFB-Vp-23" target="clKJnoHxOzagXjwGChe--2" edge="1">
          <mxGeometry relative="1" as="geometry">
            <mxPoint x="619.9961123621893" y="782.2188007849004" as="targetPoint" />
          </mxGeometry>
        </mxCell>
        <mxCell id="D7mrrMedz6HR9OCFB-Vp-23" value="&lt;font&gt;Σελίδα λίστα&amp;nbsp;προϊόντων&lt;/font&gt;" style="shape=umlBoundary;whiteSpace=wrap;html=1;strokeColor=#000000;fontColor=#000000;" parent="1" vertex="1">
          <mxGeometry x="640.05" y="747" width="100" height="80" as="geometry" />
        </mxCell>
        <mxCell id="D7mrrMedz6HR9OCFB-Vp-31" value="" style="edgeStyle=none;rounded=0;orthogonalLoop=1;jettySize=auto;html=1;strokeColor=#000000;fontColor=#000000;" parent="1" source="D7mrrMedz6HR9OCFB-Vp-27" target="D7mrrMedz6HR9OCFB-Vp-29" edge="1">
          <mxGeometry relative="1" as="geometry">
            <mxPoint x="460" y="780" as="targetPoint" />
            <Array as="points">
              <mxPoint x="470" y="780" />
            </Array>
          </mxGeometry>
        </mxCell>
        <mxCell id="D7mrrMedz6HR9OCFB-Vp-27" value="&lt;font&gt;Εμφάνισε&lt;/font&gt;" style="ellipse;shape=umlControl;whiteSpace=wrap;html=1;strokeColor=#000000;fontColor=#000000;" parent="1" vertex="1">
          <mxGeometry x="450" y="740" width="70" height="80" as="geometry" />
        </mxCell>
        <mxCell id="D7mrrMedz6HR9OCFB-Vp-34" value="" style="edgeStyle=none;rounded=0;orthogonalLoop=1;jettySize=auto;html=1;strokeColor=#000000;fontColor=#000000;" parent="1" source="D7mrrMedz6HR9OCFB-Vp-29" target="D7mrrMedz6HR9OCFB-Vp-33" edge="1">
          <mxGeometry relative="1" as="geometry" />
        </mxCell>
        <mxCell id="D7mrrMedz6HR9OCFB-Vp-29" value="&lt;font&gt;Σελίδα εισαγωγή στοιχείων&lt;/font&gt;" style="shape=umlBoundary;whiteSpace=wrap;html=1;strokeColor=#000000;fontColor=#000000;" parent="1" vertex="1">
          <mxGeometry x="325" y="740" width="100" height="80" as="geometry" />
        </mxCell>
        <mxCell id="D7mrrMedz6HR9OCFB-Vp-35" style="edgeStyle=orthogonalEdgeStyle;rounded=0;orthogonalLoop=1;jettySize=auto;html=1;fontColor=#000000;strokeColor=#FF0000;entryX=0.014;entryY=0.538;entryDx=0;entryDy=0;entryPerimeter=0;" parent="1" source="D7mrrMedz6HR9OCFB-Vp-33" target="XzfS8yWN5sf7uurUM_Dd-1" edge="1">
          <mxGeometry relative="1" as="geometry">
            <Array as="points">
              <mxPoint x="260" y="893" />
            </Array>
            <mxPoint x="320" y="890" as="targetPoint" />
          </mxGeometry>
        </mxCell>
        <mxCell id="D7mrrMedz6HR9OCFB-Vp-36" value="οχι" style="edgeLabel;html=1;align=center;verticalAlign=middle;resizable=0;points=[];fontColor=#FF0000;" parent="D7mrrMedz6HR9OCFB-Vp-35" vertex="1" connectable="0">
          <mxGeometry x="0.0823" y="-1" relative="1" as="geometry">
            <mxPoint y="9" as="offset" />
          </mxGeometry>
        </mxCell>
        <mxCell id="D7mrrMedz6HR9OCFB-Vp-38" value="&lt;font&gt;ναι&lt;/font&gt;" style="edgeStyle=orthogonalEdgeStyle;rounded=0;orthogonalLoop=1;jettySize=auto;html=1;strokeColor=#000000;entryX=0.979;entryY=0.509;entryDx=0;entryDy=0;entryPerimeter=0;fontColor=#000000;" parent="1" source="D7mrrMedz6HR9OCFB-Vp-33" target="7Z9PGxr5iKdYBE7yg34v-6" edge="1">
          <mxGeometry relative="1" as="geometry">
            <mxPoint x="210" y="750" as="targetPoint" />
          </mxGeometry>
        </mxCell>
        <mxCell id="D7mrrMedz6HR9OCFB-Vp-33" value="&lt;font&gt;Στοιχεία σωστα;&lt;/font&gt;" style="ellipse;shape=umlControl;whiteSpace=wrap;html=1;strokeColor=#000000;fontColor=#000000;" parent="1" vertex="1">
          <mxGeometry x="230" y="740" width="70" height="80" as="geometry" />
        </mxCell>
        <mxCell id="7Z9PGxr5iKdYBE7yg34v-5" value="" style="edgeStyle=orthogonalEdgeStyle;rounded=0;orthogonalLoop=1;jettySize=auto;html=1;fontColor=#000000;strokeColor=#000000;" parent="1" source="D7mrrMedz6HR9OCFB-Vp-37" target="clKJnoHxOzagXjwGChe--5" edge="1">
          <mxGeometry relative="1" as="geometry" />
        </mxCell>
        <mxCell id="D7mrrMedz6HR9OCFB-Vp-37" value="&lt;font&gt;Εμφάνισε&lt;/font&gt;" style="ellipse;shape=umlControl;whiteSpace=wrap;html=1;strokeColor=#000000;fontColor=#000000;" parent="1" vertex="1">
          <mxGeometry x="105" y="640" width="70" height="80" as="geometry" />
        </mxCell>
        <mxCell id="D7mrrMedz6HR9OCFB-Vp-42" value="" style="rounded=0;orthogonalLoop=1;jettySize=auto;html=1;strokeColor=#000000;fontColor=#000000;" parent="1" source="D7mrrMedz6HR9OCFB-Vp-39" target="D7mrrMedz6HR9OCFB-Vp-41" edge="1">
          <mxGeometry relative="1" as="geometry" />
        </mxCell>
        <mxCell id="D7mrrMedz6HR9OCFB-Vp-39" value="&lt;font&gt;Σελίδα επιβεβαίωσης&lt;/font&gt;" style="shape=umlBoundary;whiteSpace=wrap;html=1;strokeColor=#000000;fontColor=#000000;" parent="1" vertex="1">
          <mxGeometry x="90" y="350" width="100" height="80" as="geometry" />
        </mxCell>
        <mxCell id="D7mrrMedz6HR9OCFB-Vp-43" value="" style="edgeStyle=none;rounded=0;orthogonalLoop=1;jettySize=auto;html=1;fontColor=#000000;strokeColor=#FF0000;" parent="1" source="D7mrrMedz6HR9OCFB-Vp-41" target="D7mrrMedz6HR9OCFB-Vp-3" edge="1">
          <mxGeometry relative="1" as="geometry" />
        </mxCell>
        <mxCell id="D7mrrMedz6HR9OCFB-Vp-44" value="οχι" style="edgeLabel;html=1;align=center;verticalAlign=middle;resizable=0;points=[];fontColor=#FF0000;" parent="D7mrrMedz6HR9OCFB-Vp-43" vertex="1" connectable="0">
          <mxGeometry x="-0.2083" relative="1" as="geometry">
            <mxPoint x="1" y="17" as="offset" />
          </mxGeometry>
        </mxCell>
        <mxCell id="D7mrrMedz6HR9OCFB-Vp-48" value="" style="edgeStyle=none;rounded=0;orthogonalLoop=1;jettySize=auto;html=1;fontColor=#000000;" parent="1" edge="1">
          <mxGeometry relative="1" as="geometry">
            <mxPoint x="148.00249532224439" y="320.0699064448886" as="sourcePoint" />
            <mxPoint x="148.88944836072403" y="319.99985901393984" as="targetPoint" />
          </mxGeometry>
        </mxCell>
        <mxCell id="clKJnoHxOzagXjwGChe--10" value="ναι" style="rounded=0;orthogonalLoop=1;jettySize=auto;html=1;strokeColor=#000000;fontColor=#000000;fillColor=#FF0000;" parent="1" source="D7mrrMedz6HR9OCFB-Vp-41" target="clKJnoHxOzagXjwGChe--9" edge="1">
          <mxGeometry relative="1" as="geometry" />
        </mxCell>
        <mxCell id="D7mrrMedz6HR9OCFB-Vp-41" value="&lt;font&gt;Επιβεβαίωση;&lt;/font&gt;" style="ellipse;shape=umlControl;whiteSpace=wrap;html=1;strokeColor=#000000;fontColor=#000000;" parent="1" vertex="1">
          <mxGeometry x="100" y="250" width="80" height="80" as="geometry" />
        </mxCell>
        <mxCell id="clKJnoHxOzagXjwGChe--1" value="Καλάθι αγοράς" style="ellipse;shape=umlEntity;whiteSpace=wrap;html=1;strokeColor=#000000;fontColor=#000000;" parent="1" vertex="1">
          <mxGeometry x="545" y="850" width="80" height="80" as="geometry" />
        </mxCell>
        <mxCell id="clKJnoHxOzagXjwGChe--3" value="" style="edgeStyle=orthogonalEdgeStyle;rounded=0;orthogonalLoop=1;jettySize=auto;html=1;strokeColor=#000000;fontColor=#000000;fillColor=#FF0000;" parent="1" source="clKJnoHxOzagXjwGChe--2" target="D7mrrMedz6HR9OCFB-Vp-27" edge="1">
          <mxGeometry relative="1" as="geometry" />
        </mxCell>
        <mxCell id="clKJnoHxOzagXjwGChe--4" value="" style="edgeStyle=orthogonalEdgeStyle;rounded=0;orthogonalLoop=1;jettySize=auto;html=1;strokeColor=#000000;fontColor=#000000;fillColor=#FF0000;endArrow=none;endFill=0;" parent="1" source="clKJnoHxOzagXjwGChe--2" target="clKJnoHxOzagXjwGChe--1" edge="1">
          <mxGeometry relative="1" as="geometry" />
        </mxCell>
        <mxCell id="clKJnoHxOzagXjwGChe--2" value="Προσθήκη στο καλάθι" style="ellipse;shape=umlControl;whiteSpace=wrap;html=1;strokeColor=#000000;fontColor=#000000;" parent="1" vertex="1">
          <mxGeometry x="550" y="740" width="70" height="80" as="geometry" />
        </mxCell>
        <mxCell id="clKJnoHxOzagXjwGChe--7" value="" style="edgeStyle=orthogonalEdgeStyle;rounded=0;orthogonalLoop=1;jettySize=auto;html=1;strokeColor=#000000;fontColor=#000000;fillColor=#FF0000;" parent="1" source="clKJnoHxOzagXjwGChe--5" target="clKJnoHxOzagXjwGChe--6" edge="1">
          <mxGeometry relative="1" as="geometry" />
        </mxCell>
        <mxCell id="clKJnoHxOzagXjwGChe--5" value="Σελίδα Καλάθι αγοράς" style="shape=umlBoundary;whiteSpace=wrap;html=1;strokeColor=#000000;fontColor=#000000;" parent="1" vertex="1">
          <mxGeometry x="90" y="550" width="100" height="80" as="geometry" />
        </mxCell>
        <mxCell id="clKJnoHxOzagXjwGChe--8" value="" style="edgeStyle=orthogonalEdgeStyle;rounded=0;orthogonalLoop=1;jettySize=auto;html=1;strokeColor=#000000;fontColor=#000000;fillColor=#FF0000;" parent="1" source="clKJnoHxOzagXjwGChe--6" target="D7mrrMedz6HR9OCFB-Vp-39" edge="1">
          <mxGeometry relative="1" as="geometry" />
        </mxCell>
        <mxCell id="clKJnoHxOzagXjwGChe--6" value="Εμφάνισε" style="ellipse;shape=umlControl;whiteSpace=wrap;html=1;strokeColor=#000000;fontColor=#000000;" parent="1" vertex="1">
          <mxGeometry x="105" y="450" width="70" height="80" as="geometry" />
        </mxCell>
        <mxCell id="clKJnoHxOzagXjwGChe--9" value="&lt;font style=&quot;font-size: 11px;&quot;&gt;Ανακατεύθυνση στο use case Πληρωμή παραγγελίας&lt;/font&gt;" style="ellipse;shape=umlControl;whiteSpace=wrap;html=1;strokeColor=#000000;fontColor=#000000;" parent="1" vertex="1">
          <mxGeometry x="230" y="140" width="90" height="100" as="geometry" />
        </mxCell>
        <mxCell id="7Z9PGxr5iKdYBE7yg34v-1" value="Υπόλοιπο χρήστη" style="ellipse;shape=umlEntity;whiteSpace=wrap;html=1;fontColor=#000000;strokeColor=#000000;" parent="1" vertex="1">
          <mxGeometry x="520" y="120" width="80" height="80" as="geometry" />
        </mxCell>
        <mxCell id="7Z9PGxr5iKdYBE7yg34v-2" value="Λίστα καταστημάτων" style="ellipse;shape=umlEntity;whiteSpace=wrap;html=1;fontColor=#000000;strokeColor=#000000;" parent="1" vertex="1">
          <mxGeometry x="800" y="360" width="80" height="80" as="geometry" />
        </mxCell>
        <mxCell id="7Z9PGxr5iKdYBE7yg34v-3" value="Λίστα προϊόντων" style="ellipse;shape=umlEntity;whiteSpace=wrap;html=1;fontColor=#000000;strokeColor=#000000;" parent="1" vertex="1">
          <mxGeometry x="800" y="600" width="80" height="80" as="geometry" />
        </mxCell>
        <mxCell id="7Z9PGxr5iKdYBE7yg34v-4" value="Στοιχεία χρήστη" style="ellipse;shape=umlEntity;whiteSpace=wrap;html=1;fontColor=#000000;strokeColor=#000000;" parent="1" vertex="1">
          <mxGeometry y="740" width="80" height="80" as="geometry" />
        </mxCell>
        <mxCell id="7Z9PGxr5iKdYBE7yg34v-7" value="" style="edgeStyle=orthogonalEdgeStyle;rounded=0;orthogonalLoop=1;jettySize=auto;html=1;fontColor=#000000;strokeColor=#000000;" parent="1" source="7Z9PGxr5iKdYBE7yg34v-6" edge="1">
          <mxGeometry relative="1" as="geometry">
            <mxPoint x="140" y="720" as="targetPoint" />
          </mxGeometry>
        </mxCell>
        <mxCell id="7Z9PGxr5iKdYBE7yg34v-8" value="" style="edgeStyle=orthogonalEdgeStyle;rounded=0;orthogonalLoop=1;jettySize=auto;html=1;endArrow=none;endFill=0;fontColor=#000000;strokeColor=#000000;" parent="1" source="7Z9PGxr5iKdYBE7yg34v-6" target="7Z9PGxr5iKdYBE7yg34v-4" edge="1">
          <mxGeometry relative="1" as="geometry" />
        </mxCell>
        <mxCell id="7Z9PGxr5iKdYBE7yg34v-6" value="Καταχώρησε" style="ellipse;shape=umlControl;whiteSpace=wrap;html=1;fontColor=#000000;strokeColor=#000000;" parent="1" vertex="1">
          <mxGeometry x="105" y="740" width="70" height="80" as="geometry" />
        </mxCell>
        <mxCell id="7Z9PGxr5iKdYBE7yg34v-9" value="" style="endArrow=none;html=1;rounded=0;entryX=0;entryY=0.5;entryDx=0;entryDy=0;exitX=0.983;exitY=0.49;exitDx=0;exitDy=0;exitPerimeter=0;fontColor=#000000;strokeColor=#000000;" parent="1" source="D7mrrMedz6HR9OCFB-Vp-21" target="7Z9PGxr5iKdYBE7yg34v-3" edge="1">
          <mxGeometry width="50" height="50" relative="1" as="geometry">
            <mxPoint x="730" y="640" as="sourcePoint" />
            <mxPoint x="790" y="590" as="targetPoint" />
          </mxGeometry>
        </mxCell>
        <mxCell id="7Z9PGxr5iKdYBE7yg34v-10" value="" style="endArrow=none;html=1;rounded=0;fontColor=#000000;strokeColor=#000000;" parent="1" source="D7mrrMedz6HR9OCFB-Vp-15" edge="1">
          <mxGeometry width="50" height="50" relative="1" as="geometry">
            <mxPoint x="725.05" y="450" as="sourcePoint" />
            <mxPoint x="795.7606781186547" y="400" as="targetPoint" />
          </mxGeometry>
        </mxCell>
        <mxCell id="7Z9PGxr5iKdYBE7yg34v-11" value="" style="endArrow=none;html=1;rounded=0;exitX=0.429;exitY=0.125;exitDx=0;exitDy=0;exitPerimeter=0;fontColor=#000000;strokeColor=#000000;" parent="1" source="D7mrrMedz6HR9OCFB-Vp-6" edge="1">
          <mxGeometry width="50" height="50" relative="1" as="geometry">
            <mxPoint x="510" y="250" as="sourcePoint" />
            <mxPoint x="560" y="200" as="targetPoint" />
          </mxGeometry>
        </mxCell>
        <mxCell id="7Z9PGxr5iKdYBE7yg34v-12" value="Καλάθι αγοράς" style="ellipse;shape=umlEntity;whiteSpace=wrap;html=1;strokeColor=#000000;fontColor=#000000;" parent="1" vertex="1">
          <mxGeometry x="220" y="640" width="80" height="80" as="geometry" />
        </mxCell>
        <mxCell id="7Z9PGxr5iKdYBE7yg34v-13" value="" style="endArrow=none;html=1;rounded=0;fontColor=#000000;strokeColor=#000000;" parent="1" edge="1">
          <mxGeometry width="50" height="50" relative="1" as="geometry">
            <mxPoint x="175" y="680" as="sourcePoint" />
            <mxPoint x="220" y="680" as="targetPoint" />
          </mxGeometry>
        </mxCell>
        <mxCell id="XzfS8yWN5sf7uurUM_Dd-2" value="" style="edgeStyle=orthogonalEdgeStyle;rounded=0;orthogonalLoop=1;jettySize=auto;html=1;strokeColor=#FF0000;" parent="1" source="XzfS8yWN5sf7uurUM_Dd-1" target="D7mrrMedz6HR9OCFB-Vp-29" edge="1">
          <mxGeometry relative="1" as="geometry" />
        </mxCell>
        <mxCell id="XzfS8yWN5sf7uurUM_Dd-1" value="&lt;font color=&quot;#ffffff&quot;&gt;Εμφάνισε&lt;/font&gt;" style="ellipse;shape=umlControl;whiteSpace=wrap;html=1;fillColor=#FF0000;" parent="1" vertex="1">
          <mxGeometry x="340" y="850" width="70" height="80" as="geometry" />
        </mxCell>
      </root>
    </mxGraphModel>
  </diagram>
</mxfile>
